<mxfile host="app.diagrams.net" modified="2023-07-10T15:52:54.594Z" agent="Mozilla/5.0 (Windows NT 10.0; Win64; x64) AppleWebKit/537.36 (KHTML, like Gecko) Chrome/114.0.0.0 Safari/537.36 Edg/114.0.1823.67" etag="vdIYWs_Yp97Cfby2MpgU" version="21.5.2" type="github">
  <diagram name="PÃ¡gina-1" id="uv6pUXCFP7MWPsQkwd06">
    <mxGraphModel dx="1379" dy="764" grid="1" gridSize="10" guides="1" tooltips="1" connect="1" arrows="1" fold="1" page="1" pageScale="0.8" pageWidth="1169" pageHeight="827" math="0" shadow="0">
      <root>
        <mxCell id="0" />
        <mxCell id="1" parent="0" />
        <mxCell id="hR3Htvw06_-b-FylDOWY-1" value="Region" style="points=[[0,0],[0.25,0],[0.5,0],[0.75,0],[1,0],[1,0.25],[1,0.5],[1,0.75],[1,1],[0.75,1],[0.5,1],[0.25,1],[0,1],[0,0.75],[0,0.5],[0,0.25]];outlineConnect=0;gradientColor=none;html=1;whiteSpace=wrap;fontSize=12;fontStyle=0;container=1;pointerEvents=0;collapsible=0;recursiveResize=0;shape=mxgraph.aws4.group;grIcon=mxgraph.aws4.group_region;strokeColor=#147EBA;fillColor=none;verticalAlign=top;align=left;spacingLeft=30;fontColor=#147EBA;dashed=1;" parent="1" vertex="1">
          <mxGeometry x="20" y="20" width="900" height="620" as="geometry" />
        </mxCell>
        <mxCell id="hR3Htvw06_-b-FylDOWY-2" value="VPC" style="points=[[0,0],[0.25,0],[0.5,0],[0.75,0],[1,0],[1,0.25],[1,0.5],[1,0.75],[1,1],[0.75,1],[0.5,1],[0.25,1],[0,1],[0,0.75],[0,0.5],[0,0.25]];outlineConnect=0;gradientColor=none;html=1;whiteSpace=wrap;fontSize=12;fontStyle=0;container=1;pointerEvents=0;collapsible=0;recursiveResize=0;shape=mxgraph.aws4.group;grIcon=mxgraph.aws4.group_vpc;strokeColor=#248814;fillColor=none;verticalAlign=top;align=left;spacingLeft=30;fontColor=#AAB7B8;dashed=0;" parent="hR3Htvw06_-b-FylDOWY-1" vertex="1">
          <mxGeometry x="80" y="30" width="790" height="560" as="geometry" />
        </mxCell>
        <mxCell id="hR3Htvw06_-b-FylDOWY-3" value="Availability Zone" style="fillColor=none;strokeColor=#147EBA;dashed=1;verticalAlign=top;fontStyle=0;fontColor=#147EBA;whiteSpace=wrap;html=1;" parent="hR3Htvw06_-b-FylDOWY-2" vertex="1">
          <mxGeometry x="80" y="30" width="680" height="500" as="geometry" />
        </mxCell>
        <mxCell id="hR3Htvw06_-b-FylDOWY-6" value="Private subnet" style="points=[[0,0],[0.25,0],[0.5,0],[0.75,0],[1,0],[1,0.25],[1,0.5],[1,0.75],[1,1],[0.75,1],[0.5,1],[0.25,1],[0,1],[0,0.75],[0,0.5],[0,0.25]];outlineConnect=0;gradientColor=none;html=1;whiteSpace=wrap;fontSize=12;fontStyle=0;container=1;pointerEvents=0;collapsible=0;recursiveResize=0;shape=mxgraph.aws4.group;grIcon=mxgraph.aws4.group_security_group;grStroke=0;strokeColor=#147EBA;fillColor=#E6F2F8;verticalAlign=top;align=left;spacingLeft=30;fontColor=#147EBA;dashed=0;" parent="hR3Htvw06_-b-FylDOWY-2" vertex="1">
          <mxGeometry x="120" y="60" width="610" height="440" as="geometry" />
        </mxCell>
        <mxCell id="0f50duzAfJ8Ej06_kD4n-5" value="" style="sketch=0;outlineConnect=0;fontColor=#232F3E;gradientColor=none;fillColor=#BF0816;strokeColor=none;dashed=0;verticalLabelPosition=bottom;verticalAlign=top;align=center;html=1;fontSize=12;fontStyle=0;aspect=fixed;pointerEvents=1;shape=mxgraph.aws4.role;" vertex="1" parent="hR3Htvw06_-b-FylDOWY-6">
          <mxGeometry x="550" y="250" width="48" height="27.08" as="geometry" />
        </mxCell>
        <mxCell id="hR3Htvw06_-b-FylDOWY-9" value="AMI" style="outlineConnect=0;dashed=0;verticalLabelPosition=bottom;verticalAlign=top;align=center;html=1;shape=mxgraph.aws3.ami;fillColor=#F58534;gradientColor=none;" parent="hR3Htvw06_-b-FylDOWY-6" vertex="1">
          <mxGeometry x="260" y="70" width="38.1" height="40" as="geometry" />
        </mxCell>
        <mxCell id="0f50duzAfJ8Ej06_kD4n-1" value="Lambda" style="outlineConnect=0;dashed=0;verticalLabelPosition=bottom;verticalAlign=top;align=center;html=1;shape=mxgraph.aws3.lambda;fillColor=#F58534;gradientColor=none;" vertex="1" parent="hR3Htvw06_-b-FylDOWY-6">
          <mxGeometry x="410" y="194.99999999999997" width="41.13" height="50" as="geometry" />
        </mxCell>
        <mxCell id="hR3Htvw06_-b-FylDOWY-8" value="EC2" style="outlineConnect=0;dashed=0;verticalLabelPosition=bottom;verticalAlign=top;align=center;html=1;shape=mxgraph.aws3.ec2;fillColor=#F58534;gradientColor=none;" parent="hR3Htvw06_-b-FylDOWY-2" vertex="1">
          <mxGeometry x="300" y="90" width="41.13" height="50" as="geometry" />
        </mxCell>
        <mxCell id="hR3Htvw06_-b-FylDOWY-11" value="EventBridge" style="sketch=0;outlineConnect=0;fontColor=#232F3E;gradientColor=none;fillColor=#B0084D;strokeColor=none;dashed=0;verticalLabelPosition=bottom;verticalAlign=top;align=center;html=1;fontSize=12;fontStyle=0;aspect=fixed;pointerEvents=1;shape=mxgraph.aws4.eventbridge_schema;" parent="hR3Htvw06_-b-FylDOWY-2" vertex="1">
          <mxGeometry x="520" y="130" width="45" height="45" as="geometry" />
        </mxCell>
        <mxCell id="0f50duzAfJ8Ej06_kD4n-2" value="SNS" style="outlineConnect=0;dashed=0;verticalLabelPosition=bottom;verticalAlign=top;align=center;html=1;shape=mxgraph.aws3.sns;fillColor=#D9A741;gradientColor=none;" vertex="1" parent="hR3Htvw06_-b-FylDOWY-2">
          <mxGeometry x="520" y="390" width="50" height="50" as="geometry" />
        </mxCell>
        <mxCell id="0f50duzAfJ8Ej06_kD4n-4" value="" style="sketch=0;points=[[0,0,0],[0.25,0,0],[0.5,0,0],[0.75,0,0],[1,0,0],[0,1,0],[0.25,1,0],[0.5,1,0],[0.75,1,0],[1,1,0],[0,0.25,0],[0,0.5,0],[0,0.75,0],[1,0.25,0],[1,0.5,0],[1,0.75,0]];points=[[0,0,0],[0.25,0,0],[0.5,0,0],[0.75,0,0],[1,0,0],[0,1,0],[0.25,1,0],[0.5,1,0],[0.75,1,0],[1,1,0],[0,0.25,0],[0,0.5,0],[0,0.75,0],[1,0.25,0],[1,0.5,0],[1,0.75,0]];outlineConnect=0;fontColor=#232F3E;gradientColor=#F34482;gradientDirection=north;fillColor=#BC1356;strokeColor=#ffffff;dashed=0;verticalLabelPosition=bottom;verticalAlign=top;align=center;html=1;fontSize=12;fontStyle=0;aspect=fixed;shape=mxgraph.aws4.resourceIcon;resIcon=mxgraph.aws4.cloudwatch_2;" vertex="1" parent="hR3Htvw06_-b-FylDOWY-2">
          <mxGeometry x="670" y="241" width="40" height="40" as="geometry" />
        </mxCell>
        <mxCell id="0f50duzAfJ8Ej06_kD4n-3" value="E-mail" style="outlineConnect=0;dashed=0;verticalLabelPosition=bottom;verticalAlign=top;align=center;html=1;shape=mxgraph.aws3.email;fillColor=#D9A741;gradientColor=none;" vertex="1" parent="hR3Htvw06_-b-FylDOWY-2">
          <mxGeometry x="368" y="397.5" width="46.1" height="35" as="geometry" />
        </mxCell>
      </root>
    </mxGraphModel>
  </diagram>
</mxfile>
